<svg xmlns="http://www.w3.org/2000/svg" width="213.758" height="161.691" viewBox="0 0 213.758 161.691">
  <g id="football_filed_" data-name="football filed " transform="translate(213.758 161.691) rotate(180)">
    <g id="A_VIP" data-name="A VIP" transform="translate(89.407 18.631)">
      <rect id="Rectangle_398" data-name="Rectangle 398" width="8.388" height="3.44" transform="translate(6.417 15.23)" fill="#993f84"/>
      <path id="Path_717" data-name="Path 717" d="M268.863,55.815H236.78L236.2,48.2h33.049Z" transform="translate(-236.2 -48.2)" fill="#993f84"/>
      <rect id="Rectangle_399" data-name="Rectangle 399" width="8.388" height="3.44" transform="translate(18.593 15.23)" fill="#993f84"/>
      <rect id="Rectangle_400" data-name="Rectangle 400" width="8.388" height="4.87" transform="translate(18.593 19.405)" fill="#993f84"/>
      <rect id="Rectangle_401" data-name="Rectangle 401" width="8.388" height="4.87" transform="translate(6.417 19.405)" fill="#993f84"/>
      <path id="Path_718" data-name="Path 718" d="M269.306,69.9,269,75.969H255.042v-.077H251.6v.077H237.764L237.3,69.9Z" transform="translate(-236.682 -61.512)" fill="#993f84"/>
    </g>
    <g id="A" transform="translate(42.829)">
      <path id="Path_719" data-name="Path 719" d="M348.346,48.2h16.776l.58,7.615H346.761a46.229,46.229,0,0,0-21.724,5.373l-2.938-7.46C323.762,52.8,333.116,48.2,348.346,48.2Z" transform="translate(-319.278 -29.569)" fill="#f24949"/>
      <path id="Path_720" data-name="Path 720" d="M347.935,76.68h5.3v9.045H323.66A27.992,27.992,0,0,0,312.141,88.2L307,75.134A45.534,45.534,0,0,1,328.414,69.8h19.018Z" transform="translate(-300.97 -42.819)" fill="#f24949"/>
      <path id="Path_721" data-name="Path 721" d="M124.6,85.787V76.742h5.3l.348-6.842H153.2a45.4,45.4,0,0,1,19.83,4.523l-5.8,14.65a27.759,27.759,0,0,0-13.1-3.247H124.6Z" transform="translate(-50.268 -42.881)" fill="#e3e3e3"/>
      <path id="Path_722" data-name="Path 722" d="M368.217,19.821H350.629c-15.152,0-24.584,4.523-26.555,5.566l-2.474-6.3A121.66,121.66,0,0,1,367.444,3.2Z" transform="translate(-321.6 -1.963)" fill="#f24949"/>
      <path id="Path_723" data-name="Path 723" d="M294.585,17.858H278.312L277.5,1.16A137.311,137.311,0,0,1,294.585,0Z" transform="translate(-230.922)" fill="#f24949"/>
      <path id="Path_724" data-name="Path 724" d="M153.161,32.832a46.231,46.231,0,0,0-20.139-4.561H110.1l.387-7.615h24.352c.116,0,12.911.812,20.719,5.644l.387-.657c-7.963-4.948-20.989-5.76-21.105-5.76H111.917L112.728,3.3a120.784,120.784,0,0,1,45.728,16.042Z" transform="translate(-30.086 -2.024)" fill="#e3e3e3"/>
      <path id="Path_725" data-name="Path 725" d="M246.573,17.858H230.3V0a130.7,130.7,0,0,1,17.085,1.2Z" transform="translate(-165.477)" fill="#f24949"/>
    </g>
    <g id="CR_" data-name="CR " transform="translate(0 17.549)">
      <path id="Path_726" data-name="Path 726" d="M452.921,119.077a29.246,29.246,0,0,0-4.87,6.958L436.3,121.358a46.739,46.739,0,0,1,7.5-11.558Z" transform="translate(-407.812 -84.907)" fill="#15b8e2"/>
      <path id="Path_727" data-name="Path 727" d="M426.773,84.6l5.141,12.988a28.425,28.425,0,0,0-7.654,5.45L415.1,93.761A46.359,46.359,0,0,1,426.773,84.6Z" transform="translate(-378.61 -69.447)" fill="#15b8e2"/>
      <path id="Path_728" data-name="Path 728" d="M453.334,141.5l11.751,4.677a28.313,28.313,0,0,0-2.513,10.243H449.7A44.959,44.959,0,0,1,453.334,141.5Z" transform="translate(-425.155 -104.353)" fill="#15b8e2"/>
      <path id="Path_729" data-name="Path 729" d="M413.9,308.22l8.62-8.62a28.085,28.085,0,0,0,7.383,4.948l-5.412,11.6A46.239,46.239,0,0,1,413.9,308.22Z" transform="translate(-376.135 -201.34)" fill="#15b8e2"/>
      <path id="Path_730" data-name="Path 730" d="M514.556,225.54a44.531,44.531,0,0,0,.348,5.6l-22.458-.425c-.425-1.623-.734-3.015-.966-4.213a70.331,70.331,0,0,1-.58-8.079c0-.309.039-.618.039-.928h23.618Z" transform="translate(-490.9 -150.976)" fill="#15b8e2"/>
      <path id="Path_731" data-name="Path 731" d="M477.673,102.99,461.4,96.5a87.252,87.252,0,0,1,13.22-16.2l10.707,10.862A48.128,48.128,0,0,0,477.673,102.99Z" transform="translate(-449.92 -66.81)" fill="#15b8e2"/>
      <path id="Path_732" data-name="Path 732" d="M515.3,182.1c-.039.812-.077,1.662-.077,2.474v10.475H491.6a72,72,0,0,1,1.74-12.949Z" transform="translate(-491.561 -129.259)" fill="#15b8e2"/>
      <path id="Path_733" data-name="Path 733" d="M475.162,294.9a46.887,46.887,0,0,0,7.576,10.4L471.8,316.237A88.855,88.855,0,0,1,458,300.582Z" transform="translate(-446.017 -198.457)" fill="#15b8e2"/>
      <path id="Path_734" data-name="Path 734" d="M503.7,145.624H481.9a75.451,75.451,0,0,1,9.122-21.724l16.389,6.533A46.364,46.364,0,0,0,503.7,145.624Z" transform="translate(-479.929 -93.556)" fill="#15b8e2"/>
      <path id="Path_735" data-name="Path 735" d="M434.4,288.165l11.674-3.865a28.792,28.792,0,0,0,4.291,5.373l-8.581,8.581A44.282,44.282,0,0,1,434.4,288.165Z" transform="translate(-404.52 -191.955)" fill="#15b8e2"/>
      <path id="Path_736" data-name="Path 736" d="M446.6,254.9l12.717.232a27.182,27.182,0,0,0,3.556,10.475l-11.635,3.827A45.087,45.087,0,0,1,446.6,254.9Z" transform="translate(-421.745 -173.919)" fill="#15b8e2"/>
      <path id="Path_737" data-name="Path 737" d="M500.942,254.125a46.261,46.261,0,0,0,4.677,14.843l-17.24,5.682A74.334,74.334,0,0,1,478.6,253.7Z" transform="translate(-476.861 -173.183)" fill="#15b8e2"/>
      <path id="Path_738" data-name="Path 738" d="M439.7,323.3a47.28,47.28,0,0,0,10.785,8.117l-6.494,13.877A103.6,103.6,0,0,1,428.8,334.2Z" transform="translate(-402.476 -215.879)" fill="#15b8e2"/>
      <path id="Path_739" data-name="Path 739" d="M455.9,225.54V217.5h12.949v11.132a22.383,22.383,0,0,0,.155,2.783l-12.717-.232A39.182,39.182,0,0,1,455.9,225.54Z" transform="translate(-431.47 -150.976)" fill="#15b8e2"/>
      <path id="Path_740" data-name="Path 740" d="M456.3,184.574c0-.812.039-1.662.077-2.474h12.872v12.949H456.3Z" transform="translate(-431.87 -129.259)" fill="#15b8e2"/>
      <path id="Path_741" data-name="Path 741" d="M451.713,59.818a47.741,47.741,0,0,0-11.944,9.354L429.1,58.349A101.523,101.523,0,0,1,446.031,45.4Z" transform="translate(-403.82 -45.4)" fill="#15b8e2"/>
    </g>
    <g id="B" transform="translate(42.21 120.331)">
      <path id="Path_742" data-name="Path 742" d="M289.841,358.9h11.094v9.045H289.3Z" transform="translate(-241.214 -340.5)" fill="#e29e15"/>
      <path id="Path_743" data-name="Path 743" d="M289.3,334.648V329.7h11.4v10.514H289.3Z" transform="translate(-240.982 -322.588)" fill="#e29e15"/>
      <rect id="Rectangle_402" data-name="Rectangle 402" width="8.62" height="5.566" transform="translate(38.925 12.06)" fill="#e29e15"/>
      <path id="Path_744" data-name="Path 744" d="M355.537,342.5v5.218l-.077.348H345.1l1.469-5.566Z" transform="translate(-317.385 -330.44)" fill="#e29e15"/>
      <rect id="Rectangle_403" data-name="Rectangle 403" width="8.736" height="7.847" transform="translate(60.494 9.78)" fill="#e3e3e3"/>
      <rect id="Rectangle_404" data-name="Rectangle 404" width="8.736" height="9.045" transform="translate(60.494 18.399)" fill="#e3e3e3"/>
      <path id="Path_748" data-name="Path 748" d="M233.2,329.7h11.4v10.514H233.2Z" transform="translate(-163.197 -322.588)" fill="#e3e3e3"/>
      <path id="Path_750" data-name="Path 750" d="M232.6,367.945V358.9h11.094l.541,9.045Z" transform="translate(-162.597 -340.5)" fill="#e3e3e3"/>
      <rect id="Rectangle_405" data-name="Rectangle 405" width="8.62" height="5.566" transform="translate(82.179 12.06)" fill="#e3e3e3"/>
      <path id="Path_753" data-name="Path 753" d="M321.933,358.9h9.161l-.5,9.045H320Z" transform="translate(-283.24 -340.5)" fill="#e29e15"/>
      <path id="Path_759" data-name="Path 759" d="M203.3,358.9h9.161l1.933,9.045H203.8Z" transform="translate(-121.43 -340.5)" fill="#e3e3e3"/>
      <path id="Path_760" data-name="Path 760" d="M180,347.718V342.5h8.968l1.469,5.566H180.077Z" transform="translate(-88.467 -330.44)" fill="#e3e3e3"/>
      <g id="Group_495" data-name="Group 495">
        <path id="Path_745" data-name="Path 745" d="M290.034,384.2h11.674v13.181H289.3Z" transform="translate(-241.987 -356.021)" fill="#e29e15"/>
        <g id="Group_489" data-name="Group 489" transform="translate(70.003)">
          <path id="Path_746" data-name="Path 746" d="M134.486,314.315a27.669,27.669,0,0,0,12.6-3.015l6.146,13.143a45.381,45.381,0,0,1-19.714,4.445h-.812l-1.662-6.339H124.9v-7.576l.039-.7h9.548Z" transform="translate(-99.968 -311.3)" fill="#e3e3e3"/>
          <path id="Path_747" data-name="Path 747" d="M224.3,319.1v.039h0v8.233H212.276v-4.948H200.1V319.1Z" transform="translate(-200.1 -316.085)" fill="#e3e3e3"/>
        </g>
        <path id="Path_749" data-name="Path 749" d="M230.6,397.381V384.2h11.674l.734,13.181Z" transform="translate(-160.597 -356.021)" fill="#e3e3e3"/>
        <path id="Path_751" data-name="Path 751" d="M264.7,384.2h8.736v13.181H264.7Z" transform="translate(-204.206 -356.021)" fill="#e3e3e3"/>
        <path id="Path_752" data-name="Path 752" d="M195.7,384.2h10.707l2.783,12.911c-.309.077-.58.193-.889.271H196.473Z" transform="translate(-113.289 -356.021)" fill="#e3e3e3"/>
        <path id="Path_754" data-name="Path 754" d="M345.7,352.776l3.556-7.576a46.128,46.128,0,0,0,21.569,5.3h9.857l-1.933,9.045C356.6,359.966,347.208,353.9,345.7,352.776Z" transform="translate(-342.762 -332.096)" fill="#e29e15"/>
        <path id="Path_755" data-name="Path 755" d="M351.1,372.3l2.628-5.6c1.933,1.43,11.287,7.19,33.2,6.8L384.188,386.3A141.2,141.2,0,0,1,351.1,372.3Z" transform="translate(-351.1 -345.285)" fill="#e29e15"/>
        <path id="Path_756" data-name="Path 756" d="M324.222,384.2h10.707l-.734,13.181H321.941c-.193-.039-.348-.116-.541-.155Z" transform="translate(-287.616 -356.021)" fill="#e29e15"/>
        <path id="Path_757" data-name="Path 757" d="M115.4,351.723h11.79a46.371,46.371,0,0,0,20.023-4.523l3.324,7.112c-14.031,7.5-32.74,6.455-32.933,6.455h-.232Z" transform="translate(-23.596 -333.323)" fill="#e3e3e3"/>
        <path id="Path_758" data-name="Path 758" d="M108.5,373.833h.039c.039,0,1.005.039,2.59.039,5.682,0,19.6-.657,30.691-6.571l2.4,5.141a141.159,141.159,0,0,1-33.011,14.07Z" transform="translate(-14.609 -345.654)" fill="#e3e3e3"/>
        <g id="Group_490" data-name="Group 490" transform="translate(6.803 0.734)">
          <path id="Path_761" data-name="Path 761" d="M289.3,319.1h24.236v3.324H301.36v4.948H289.3V319.1Z" transform="translate(-260.619 -316.819)" fill="#e29e15"/>
          <path id="Path_762" data-name="Path 762" d="M359.35,313.2a27.722,27.722,0,0,0,11.055,2.281h11.4v.116h0l.039,8.156H375.7l-1.662,6.339a45.275,45.275,0,0,1-20.139-5.218Z" transform="translate(-353.9 -313.2)" fill="#e29e15"/>
        </g>
      </g>
    </g>
    <g id="CL" transform="translate(159.99 17.742)">
      <path id="Path_763" data-name="Path 763" d="M82.614,298.362,72.1,287.848a28.8,28.8,0,0,0,3.672-4.948l14.882,4.909A44.866,44.866,0,0,1,82.614,298.362Z" transform="translate(-64.756 -191.289)" fill="#e3e3e3"/>
      <path id="Path_764" data-name="Path 764" d="M101.1,297.2l10.475,10.475a45.831,45.831,0,0,1-11.132,7.808L94.3,302.3A29.3,29.3,0,0,0,101.1,297.2Z" transform="translate(-94.261 -200.061)" fill="#e3e3e3"/>
      <path id="Path_765" data-name="Path 765" d="M58.4,264.943a28.1,28.1,0,0,0,3.247-9.934l16.544-.309a45.024,45.024,0,0,1-4.909,15.153Z" transform="translate(-46.997 -173.99)" fill="#e3e3e3"/>
      <path id="Path_766" data-name="Path 766" d="M29.6,90.464,39.148,80.8a88.988,88.988,0,0,1,13.1,16.119L37.872,102.64A45.818,45.818,0,0,0,29.6,90.464Z" transform="translate(-9.925 -67.31)" fill="#e3e3e3"/>
      <path id="Path_767" data-name="Path 767" d="M74.192,225.54a44.99,44.99,0,0,1-.348,5.6l-16.544.309c.077-.928.155-1.894.155-2.822V217.5H74.192Z" transform="translate(-42.573 -151.169)" fill="#e3e3e3"/>
      <path id="Path_768" data-name="Path 768" d="M.309,225.54V217.5H21.646c0,.309.039.618.039.928a69.093,69.093,0,0,1-.58,8.079c-.232,1.2-.541,2.629-.966,4.213L0,231.106A52.548,52.548,0,0,0,.309,225.54Z" transform="translate(32.083 -151.169)" fill="#e3e3e3"/>
      <path id="Path_769" data-name="Path 769" d="M38.995,296.3l15.23,5.025A85.917,85.917,0,0,1,40.58,316.9l-9.78-9.78A46.976,46.976,0,0,0,38.995,296.3Z" transform="translate(-12.362 -199.509)" fill="#e3e3e3"/>
      <path id="Path_770" data-name="Path 770" d="M109.531,91.445,98.438,102.694A27.922,27.922,0,0,0,90.9,96.818l.5.193L97.162,82.4A46.367,46.367,0,0,1,109.531,91.445Z" transform="translate(-90.9 -68.291)" fill="#e3e3e3"/>
      <path id="Path_771" data-name="Path 771" d="M74.037,184.574v10.475H57.3V182.1H73.96C74.037,182.912,74.037,183.724,74.037,184.574Z" transform="translate(-42.418 -129.453)" fill="#e3e3e3"/>
      <path id="Path_772" data-name="Path 772" d="M77.159,119.863a45.518,45.518,0,0,1,3.9,15.578H64.4a28.054,28.054,0,0,0-6.8-16.892L68.694,107.3a46.7,46.7,0,0,1,8.117,11.906l-14.457,5.759.271.7Z" transform="translate(-49.56 -83.566)" fill="#e3e3e3"/>
      <path id="Path_773" data-name="Path 773" d="M64.8,59.313,70.1,45.9A102.177,102.177,0,0,1,86.91,58.849L77.4,68.513A48.463,48.463,0,0,0,64.8,59.313Z" transform="translate(-58.19 -45.9)" fill="#e3e3e3"/>
      <path id="Path_774" data-name="Path 774" d="M5.1,129.96l14.457-5.76A74.58,74.58,0,0,1,28.6,145.808H9.081A46.438,46.438,0,0,0,5.1,129.96Z" transform="translate(23.195 -93.934)" fill="#e3e3e3"/>
      <path id="Path_775" data-name="Path 775" d="M88.705,335.418a100.677,100.677,0,0,1-15.114,11.094L71.62,342.3l-.773-1.624-.077-.193-.193-.464-.309-.7-2.667-5.76A46.639,46.639,0,0,0,78.964,325.6Z" transform="translate(-61.067 -217.484)" fill="#e3e3e3"/>
      <path id="Path_776" data-name="Path 776" d="M.177,184.574c0-.812-.039-1.662-.077-2.474H19.775a72,72,0,0,1,1.739,12.949H.177Z" transform="translate(32.215 -129.453)" fill="#e3e3e3"/>
      <path id="Path_777" data-name="Path 777" d="M9.448,254.087l20.062-.387a75.052,75.052,0,0,1-9.7,20.835L4.5,269.471A46.956,46.956,0,0,0,9.448,254.087Z" transform="translate(22.519 -173.376)" fill="#e3e3e3"/>
    </g>
    <path id="text" d="M62.176,74.673l-1.62-4.7h.91l.33.962h1.78l.319-.962h1l-1.654,4.7Zm.313-1.62q.07.231.183.649h.007q.065-.279.187-.649l.479-1.4H62.009Zm57.176-34.537.125-.836a2.5,2.5,0,0,0,.918.167,1.178,1.178,0,0,0,.988-.445,1.8,1.8,0,0,0,.326-1.135q0-1.588-1.369-1.588a1.991,1.991,0,0,0-.89.2l-.139-.8a3.445,3.445,0,0,1,1.222-.214,2.066,2.066,0,0,1,1.7.687,2.426,2.426,0,0,1,.468,1.567,2.678,2.678,0,0,1-.588,1.828,2.206,2.206,0,0,1-1.763.714A3.5,3.5,0,0,1,119.665,38.516Zm-113.836,0,.126-.836a2.492,2.492,0,0,0,.917.167,1.179,1.179,0,0,0,.989-.445,1.8,1.8,0,0,0,.326-1.135q0-1.588-1.37-1.588a1.991,1.991,0,0,0-.89.2l-.139-.8a3.446,3.446,0,0,1,1.223-.214,2.064,2.064,0,0,1,1.7.687,2.427,2.427,0,0,1,.469,1.567A2.683,2.683,0,0,1,8.6,37.942a2.206,2.206,0,0,1-1.763.714A3.506,3.506,0,0,1,5.829,38.516Zm109.973-1.2a1.246,1.246,0,0,1,.333-.873,1.411,1.411,0,0,1,.822-.435q-.265-.347-.377-.513l-1.09-1.58h1.118l1.267,1.94h.077v-1.94h.9v4.7q-.491.031-1.348.031Q115.8,38.642,115.8,37.317Zm1.183-.611a.637.637,0,0,0-.239.523q0,.676.85.677a2.092,2.092,0,0,0,.356-.024V36.526a3.171,3.171,0,0,0-.326-.014A.974.974,0,0,0,116.985,36.706ZM4.117,38.612v-3.9H2.591v-.792H5.02v4.7ZM62,4.181a1.011,1.011,0,0,1-.408-.863,1.046,1.046,0,0,1,.71-1.053V2.25a1.027,1.027,0,0,1-.608-.366,1.059,1.059,0,0,1-.234-.683,1.3,1.3,0,0,1,.431-1,2.1,2.1,0,0,1,1.464-.459l.581.007q.459.007.788.006v4.69q-.663.036-1.56.037A1.951,1.951,0,0,1,62,4.181Zm.553-1.009q0,.585.758.584.217,0,.51-.013V2.508c-.075,0-.2-.006-.371-.006Q62.555,2.5,62.555,3.172Zm.1-2.5a.625.625,0,0,0-.224.507q0,.652,1,.652c.2,0,.332,0,.4-.006V.491C63.6.477,63.43.47,63.319.47A1.007,1.007,0,0,0,62.654.667Z" transform="translate(169.799 119.822) rotate(180)" fill="#e3e3e3"/>
    <g id="football_filed" data-name="football filed" transform="translate(60.262 53.807)">
      <path id="Path_704" data-name="Path 704" d="M247.643,139.2v58.368H154.1V139.2h93.543Zm-91.649,16.235v40.7H245.9V140.476H156.033v14.959Z" transform="translate(-154.1 -139.2)" fill="#2ebc26"/>
      <path id="Path_705" data-name="Path 705" d="M381.6,147.417V145.6h2.551A2.969,2.969,0,0,1,381.6,147.417Z" transform="translate(-378.546 -143.126)" fill="#2ebc26"/>
      <path id="Path_706" data-name="Path 706" d="M161.6,145.5h2.513v1.817A2.9,2.9,0,0,1,161.6,145.5Z" transform="translate(-73.468 -143.065)" fill="#2ebc26"/>
      <path id="Path_707" data-name="Path 707" d="M275.9,195.867V185.082h14.573V177.66a6.287,6.287,0,0,0,3.595-5.489,6.36,6.36,0,0,0-3.595-5.489v-7.422H275.9V148.476a4.107,4.107,0,0,0,3.749-2.976h39.659v16.7a10.225,10.225,0,0,0,0,20.41v16.2H279.649A4.08,4.08,0,0,0,275.9,195.867Z" transform="translate(-272.846 -143.065)" fill="#2ebc26"/>
      <path id="Path_708" data-name="Path 708" d="M344.1,212.072V203.8a4.73,4.73,0,0,1,0,8.272Z" transform="translate(-326.435 -178.829)" fill="#2ebc26"/>
      <path id="Path_709" data-name="Path 709" d="M275.9,200.745a9.049,9.049,0,0,1,8.427-9.045v18.129A9.112,9.112,0,0,1,275.9,200.745Z" transform="translate(-237.864 -171.406)" fill="#2ebc26"/>
      <path id="Path_710" data-name="Path 710" d="M164.113,278.8v1.817H161.6A3.013,3.013,0,0,1,164.113,278.8Z" transform="translate(-73.468 -224.838)" fill="#2ebc26"/>
      <path id="Path_711" data-name="Path 711" d="M200.911,198.782H161.6v-16.2a10.256,10.256,0,0,0,0-20.487V145.4h39.311a4.057,4.057,0,0,0,3.711,2.976v10.785H190.049v7.422a5.955,5.955,0,0,0,0,10.9V184.9h14.573v10.823A4.276,4.276,0,0,0,200.911,198.782Z" transform="translate(-113.978 -143.003)" fill="#2ebc26"/>
      <path id="Path_712" data-name="Path 712" d="M259.281,200.745a9.107,9.107,0,0,1-8.581,9.084V191.7A9.072,9.072,0,0,1,259.281,200.745Z" transform="translate(-203.078 -171.406)" fill="#2ebc26"/>
      <path id="Path_713" data-name="Path 713" d="M384.151,280.617H381.6V278.8A2.955,2.955,0,0,1,384.151,280.617Z" transform="translate(-378.546 -224.838)" fill="#2ebc26"/>
      <path id="Path_714" data-name="Path 714" d="M366.852,207.663H353.4V203.1h7.77V188.723H353.4V184.2h13.452Z" transform="translate(-350.346 -166.806)" fill="#2ebc26"/>
      <rect id="Rectangle_396" data-name="Rectangle 396" width="6.61" height="12.06" transform="translate(3.054 23.077)" fill="#2ebc26"/>
      <path id="Path_715" data-name="Path 715" d="M201.8,203.9v8.195a4.7,4.7,0,0,1,0-8.195Z" transform="translate(-125.764 -178.891)" fill="#2ebc26"/>
      <rect id="Rectangle_397" data-name="Rectangle 397" width="6.61" height="12.06" transform="translate(84.034 23.077)" fill="#2ebc26"/>
      <path id="Path_716" data-name="Path 716" d="M161.6,184.2h13.452v4.523h-7.77V203.1h7.77v4.561H161.6Z" transform="translate(-84.408 -166.806)" fill="#2ebc26"/>
    </g>
  </g>
</svg>
